<svg width="37" height="36" viewBox="0 0 37 36" fill="none" xmlns="http://www.w3.org/2000/svg">
<path d="M24.9854 0.894043H22.0877C21.9497 0.894043 21.8174 0.94738 21.7198 1.04232C21.6222 1.13726 21.5674 1.26603 21.5674 1.40029V1.88939C21.5674 1.95587 21.5808 2.0217 21.607 2.08312C21.6331 2.14454 21.6715 2.20035 21.7198 2.24736C21.8174 2.3423 21.9497 2.39564 22.0877 2.39564H24.9854C25.0537 2.39564 25.1214 2.38254 25.1845 2.3571C25.2476 2.33166 25.305 2.29437 25.3533 2.24736C25.4016 2.20035 25.44 2.14454 25.4661 2.08312C25.4923 2.0217 25.5057 1.95587 25.5057 1.88939V1.40029C25.5057 1.26603 25.4509 1.13726 25.3533 1.04232C25.2557 0.94738 25.1234 0.894043 24.9854 0.894043Z" fill="#8F9799"/>
<path d="M28.2966 3.49265V33.0335C28.2966 34.1519 27.3648 35.0585 26.2154 35.0585H10.7846C9.63516 35.0585 8.70337 34.1519 8.70337 33.0335V3.49265C8.70337 2.37426 9.63516 1.46765 10.7846 1.46765H26.2154C27.3648 1.46765 28.2966 2.37426 28.2966 3.49265Z" fill="#464A4C"/>
<path d="M26.8571 4.726V29.3332C26.8571 29.8924 26.3912 30.3457 25.8165 30.3457H11.1834C10.6087 30.3457 10.1428 29.8924 10.1428 29.3332V4.726C10.1428 4.16681 10.6087 3.7135 11.1834 3.7135H25.8165C26.3912 3.7135 26.8571 4.16681 26.8571 4.726Z" fill="#CAD6D8"/>
<path d="M10.1428 23.9527V4.58678C10.1428 4.10444 10.5639 3.7135 11.0834 3.7135H22.4524L10.1428 23.9527Z" fill="#F4F9F9"/>
<path d="M17.0027 33.6111H19.997C20.5143 33.6111 20.9335 33.2031 20.9335 32.6998V32.6665C20.9335 32.1632 20.5143 31.7552 19.997 31.7552H17.0027C16.4854 31.7552 16.0662 32.1632 16.0662 32.6665V32.6998C16.0662 33.2031 16.4854 33.6111 17.0027 33.6111Z" fill="#8F9799"/>
</svg>
