<svg width="37" height="36" viewBox="0 0 37 36" fill="none" xmlns="http://www.w3.org/2000/svg">
<g clip-path="url(#clip0_52:128)">
<path d="M34.9579 36.0001C36.0856 36.0001 37 35.1105 37 34.0132V1.98689C37 0.889453 36.0856 0 34.9579 0H2.04208C0.914016 0 0 0.889453 0 1.98689V34.0132C0 35.1105 0.914016 36.0001 2.04208 36.0001H34.9579Z" fill="#395185"/>
<path d="M25.5294 36.0001V22.059H30.339L31.059 16.6259H25.5294V13.157C25.5294 11.584 25.9784 10.512 28.2969 10.512L31.2538 10.5107V5.65143C30.7422 5.58519 28.987 5.43726 26.9451 5.43726C22.6817 5.43726 19.763 7.96921 19.763 12.6191V16.6259H14.9412V22.059H19.763V36.0001H25.5294Z" fill="white"/>
</g>
<defs>
<clipPath id="clip0_52:128">
<rect width="37" height="36" fill="white"/>
</clipPath>
</defs>
</svg>
