<svg width="37" height="36" viewBox="0 0 37 36" fill="none" xmlns="http://www.w3.org/2000/svg">
<path d="M18.5001 0C8.2841 0 0 8.25221 0 18.4321C0 26.5759 5.30083 33.4852 12.6515 35.9224C13.5761 36.093 13.9156 35.5225 13.9156 35.0356C13.9156 34.5961 13.8983 33.1442 13.8905 31.6041C8.74371 32.719 7.6577 29.4293 7.6577 29.4293C6.81609 27.2988 5.60348 26.7322 5.60348 26.7322C3.92504 25.5882 5.73009 25.6118 5.73009 25.6118C7.58775 25.7417 8.56593 27.5112 8.56593 27.5112C10.216 30.329 12.8939 29.5144 13.9496 29.0434C14.1156 27.8522 14.5951 27.0389 15.1242 26.5787C11.015 26.1127 6.69541 24.5321 6.69541 17.4695C6.69541 15.4571 7.41807 13.8128 8.60149 12.522C8.40941 12.0577 7.77621 10.1831 8.78071 7.6441C8.78071 7.6441 10.3343 7.14874 13.8697 9.53352C15.3453 9.12514 16.9279 8.92037 18.5001 8.91331C20.0724 8.92037 21.6563 9.12499 23.1347 9.53352C26.6657 7.14888 28.2171 7.64424 28.2171 7.64424C29.2241 10.183 28.5906 12.0578 28.3985 12.522C29.5847 13.8128 30.3024 15.4571 30.3024 17.4695C30.3024 24.549 25.9746 26.1078 21.855 26.5641C22.5185 27.1361 23.1098 28.2578 23.1098 29.9775C23.1098 32.4436 23.0884 34.4285 23.0884 35.0356C23.0884 35.5262 23.4214 36.1009 24.3592 35.9198C31.7058 33.48 37 26.5733 37 18.4323C37 8.25221 28.7171 0 18.5001 0ZM6.92897 26.257C6.88822 26.3485 6.74354 26.376 6.61187 26.3131C6.4776 26.2531 6.4023 26.1282 6.44566 26.0364C6.48555 25.942 6.63052 25.9157 6.76435 25.9789C6.89877 26.0391 6.97537 26.1651 6.92897 26.257ZM7.83894 27.066C7.75078 27.1475 7.57821 27.1096 7.46114 26.9809C7.34016 26.8524 7.31747 26.6805 7.40694 26.5978C7.49799 26.5163 7.66522 26.5545 7.78648 26.6829C7.90759 26.8129 7.93101 26.9836 7.83894 27.066ZM8.46332 28.101C8.34986 28.1795 8.16457 28.1059 8.04996 27.9421C7.93664 27.7782 7.93664 27.5816 8.05241 27.5028C8.16732 27.4241 8.34986 27.4949 8.46592 27.6576C8.57894 27.8243 8.57894 28.0208 8.46317 28.1012L8.46332 28.101ZM9.51897 29.2998C9.41766 29.4113 9.20158 29.3813 9.04346 29.2293C8.88173 29.0807 8.83679 28.8698 8.93854 28.7584C9.04115 28.6466 9.25838 28.678 9.41766 28.8289C9.57809 28.9773 9.62723 29.1897 9.51897 29.2998ZM10.8836 29.7045C10.8388 29.8489 10.6307 29.9146 10.4213 29.8532C10.212 29.79 10.0751 29.6209 10.1173 29.4751C10.1608 29.3296 10.3698 29.2614 10.5808 29.327C10.7898 29.3898 10.9271 29.5577 10.8836 29.7046V29.7045ZM12.4365 29.8763C12.4417 30.0282 12.2641 30.1542 12.0441 30.1571C11.8229 30.162 11.6439 30.039 11.6414 29.8892C11.6414 29.7359 11.8151 29.611 12.0364 29.6073C12.2564 29.6029 12.4365 29.7251 12.4365 29.8763ZM13.962 29.8179C13.9883 29.9663 13.8355 30.1186 13.617 30.1592C13.4024 30.1982 13.2035 30.1067 13.1762 29.9596C13.1496 29.8076 13.3053 29.6552 13.5196 29.6159C13.7384 29.578 13.9341 29.6672 13.962 29.8179Z" fill="#161614"/>
</svg>
