<svg width="36" height="36" viewBox="0 0 36 36" fill="none" xmlns="http://www.w3.org/2000/svg">
<g clip-path="url(#clip0_52:201)">
<path d="M36 27C36 28.0609 35.5786 29.0783 34.8284 29.8284C34.0783 30.5786 33.0609 31 32 31H4C2.93913 31 1.92172 30.5786 1.17157 29.8284C0.421427 29.0783 0 28.0609 0 27V9C0 7.93913 0.421427 6.92172 1.17157 6.17157C1.92172 5.42143 2.93913 5 4 5H32C33.0609 5 34.0783 5.42143 34.8284 6.17157C35.5786 6.92172 36 7.93913 36 9V27Z" fill="#CCD6DD"/>
<path d="M11.9499 17.636L0.636904 28.949C0.609904 28.977 0.599904 29.012 0.576904 29.04C0.916904 29.61 1.3909 30.083 1.9609 30.424C1.9899 30.401 2.0239 30.391 2.0509 30.364L13.3649 19.05C13.5524 18.8623 13.6577 18.6079 13.6576 18.3426C13.6575 18.0774 13.552 17.823 13.3644 17.6355C13.1768 17.448 12.9223 17.3427 12.6571 17.3428C12.3918 17.3429 12.1374 17.4483 11.9499 17.636ZM35.4229 29.04C35.4019 29.012 35.3899 28.977 35.3629 28.95L24.0509 17.636C23.9581 17.5431 23.8478 17.4694 23.7265 17.419C23.6052 17.3687 23.4751 17.3428 23.3438 17.3428C23.2124 17.3427 23.0823 17.3686 22.961 17.4188C22.8396 17.469 22.7293 17.5426 22.6364 17.6355C22.5435 17.7283 22.4698 17.8386 22.4195 17.9599C22.3692 18.0812 22.3432 18.2113 22.3432 18.3426C22.3432 18.474 22.369 18.604 22.4192 18.7254C22.4694 18.8468 22.5431 18.9571 22.6359 19.05L33.9489 30.364C33.9749 30.39 34.0109 30.401 34.0389 30.424C34.6083 30.0851 35.084 29.6094 35.4229 29.04Z" fill="#99AAB5"/>
<path d="M32 5H4C2.93913 5 1.92172 5.42143 1.17157 6.17157C0.421427 6.92172 0 7.93913 0 9L0 10.03L14.528 24.526C15.4427 25.4354 16.6802 25.9458 17.97 25.9458C19.2598 25.9458 20.4973 25.4354 21.412 24.526L36 10.009V9C36 7.93913 35.5786 6.92172 34.8284 6.17157C34.0783 5.42143 33.0609 5 32 5Z" fill="#99AAB5"/>
<path d="M32 5H4.00003C3.24727 5.00168 2.51031 5.21616 1.87422 5.61869C1.23812 6.02123 0.7288 6.59542 0.405029 7.275L15.171 22.042C15.5425 22.4135 15.9834 22.7081 16.4687 22.9091C16.9541 23.1102 17.4742 23.2136 17.9995 23.2136C18.5248 23.2136 19.045 23.1102 19.5303 22.9091C20.0156 22.7081 20.4566 22.4135 20.828 22.042L35.595 7.275C35.2714 6.59535 34.7621 6.02109 34.1259 5.61854C33.4898 5.21599 32.7528 5.00156 32 5Z" fill="#E1E8ED"/>
<path d="M15 9.27C15 8.54 15.365 8 16 8H19.62C20.459 8 20.794 8.49 20.794 9C20.794 9.496 20.445 10 19.759 10H17.051V12H19.584C20.3 12 20.649 12.489 20.649 13C20.649 13.496 20.283 14 19.584 14H17.051V16H19.891C20.59 16 20.928 16.489 20.928 17C20.928 17.496 20.575 18 19.891 18H16.125C15.482 18 15 17.469 15 16.812V9.27Z" fill="#66757F"/>
</g>
<defs>
<clipPath id="clip0_52:201">
<rect width="36" height="36" fill="white"/>
</clipPath>
</defs>
</svg>
