<svg width="37" height="36" viewBox="0 0 37 36" fill="none" xmlns="http://www.w3.org/2000/svg">
<g clip-path="url(#clip0_52:126)">
<path d="M31.5248 30.6735H26.0425V22.3199C26.0425 20.328 26.006 17.7637 23.1912 17.7637C20.3359 17.7637 19.899 19.9341 19.899 22.1749V30.6729H14.4169V13.4947H19.6797V15.8423H19.7534C20.2801 14.9661 21.0412 14.2452 21.9556 13.7566C22.87 13.2679 23.9036 13.0297 24.9461 13.0674C30.5026 13.0674 31.5271 16.6235 31.5271 21.2498L31.5248 30.6735ZM8.23095 11.1467C6.47388 11.147 5.04923 9.76126 5.04894 8.05169C5.04866 6.34211 6.47272 4.95597 8.22979 4.95568C9.98686 4.95526 11.4115 6.34098 11.4118 8.05056C11.4119 8.87153 11.0769 9.65894 10.4804 10.2396C9.88387 10.8202 9.07472 11.1465 8.23095 11.1467ZM10.9721 30.6736H5.48413V13.4947H10.972V30.6735L10.9721 30.6736ZM34.2578 0.00188769H2.72936C1.23925 -0.0144248 0.0172344 1.147 -0.000976562 2.59684V33.4012C0.0166562 34.8517 1.23852 36.0143 2.72922 35.9991H34.2578C35.7517 36.0171 36.9784 34.8545 36.999 33.4012V2.59445C36.9778 1.14179 35.751 -0.0194873 34.2578 -0.000502937" fill="#0A66C2"/>
</g>
<defs>
<clipPath id="clip0_52:126">
<rect width="37" height="36" fill="white"/>
</clipPath>
</defs>
</svg>
