<?xml version="1.0" encoding="UTF-8" standalone="no"?>
<!-- Created with Inkscape (http://www.inkscape.org/) -->

<svg
   width="200cm"
   height="60cm"
   viewBox="0 0 200 60"
   version="1.1"
   id="SVGRoot"
   sodipodi:docname="logosup.svg"
   inkscape:version="1.1.1 (3bf5ae0d25, 2021-09-20)"
   xmlns:inkscape="http://www.inkscape.org/namespaces/inkscape"
   xmlns:sodipodi="http://sodipodi.sourceforge.net/DTD/sodipodi-0.dtd"
   xmlns="http://www.w3.org/2000/svg"
   xmlns:svg="http://www.w3.org/2000/svg">
  <sodipodi:namedview
     id="namedview24746"
     pagecolor="#ffffff"
     bordercolor="#666666"
     borderopacity="1.0"
     inkscape:pageshadow="2"
     inkscape:pageopacity="0.0"
     inkscape:pagecheckerboard="0"
     inkscape:document-units="cm"
     showgrid="false"
     inkscape:zoom="0.11803802"
     inkscape:cx="2660.1599"
     inkscape:cy="1198.7663"
     inkscape:window-width="1366"
     inkscape:window-height="715"
     inkscape:window-x="-8"
     inkscape:window-y="22"
     inkscape:window-maximized="1"
     inkscape:current-layer="layer1" />
  <defs
     id="defs24741">
    <rect
       x="2355.1733"
       y="432.06418"
       width="355.81735"
       height="254.15527"
       id="rect5850" />
  </defs>
  <g
     inkscape:label="Camada 1"
     inkscape:groupmode="layer"
     id="layer1">
    <g
       id="g15345"
       transform="matrix(1.3791686,0,0,0.98678659,-0.88648013,-0.03867631)">
      <rect
         style="fill:#e9edc9;fill-opacity:1;stroke:#464686;stroke-width:0.0256923"
         id="rect1627"
         width="55.590187"
         height="59.849056"
         x="0.67772967"
         y="0.49787769"
         ry="4.7129045" />
      <g
         id="g1603"
         transform="matrix(1.9133707,0,0,3.0392529,-41.889198,-54.607059)">
        <path
           id="text1704"
           style="font-style:normal;font-variant:normal;font-weight:bold;font-stretch:normal;font-size:192px;line-height:1.25;font-family:'Times New Roman';-inkscape-font-specification:'Times New Roman,  Bold';white-space:pre;shape-inside:url(#rect1706);fill:#2c2c54;fill-opacity:1;stroke:none;stroke-width:0.0993959"
           d="m 34.495935,27.486458 -1.304096,-2.589109 c -0.212614,-0.394788 -0.318919,-0.650073 -0.318919,-0.765877 0,-0.121068 0.05497,-0.213195 0.164943,-0.276361 0.109973,-0.06843 0.370241,-0.110539 0.780806,-0.126331 v -0.292147 h -5.267682 v 0.292147 c 0.344581,0.04211 0.597498,0.118442 0.758792,0.228982 0.168625,0.105277 0.362897,0.355303 0.582843,0.750091 l 0.109989,0.189496 -1.451624,2.881966 -1.50666,-2.881966 c -0.234609,-0.447427 -0.351899,-0.715878 -0.351899,-0.805363 0,-0.09475 0.066,-0.178968 0.197963,-0.252661 0.131968,-0.07369 0.373899,-0.110545 0.725813,-0.110545 v -0.292147 h -5.190716 v 0.292147 c 0.373908,0.07369 0.652513,0.194763 0.835802,0.363206 0.285929,0.2474 0.634165,0.779045 1.04473,1.594939 l 2.738307,5.353328 h 0.571877 l 2.76032,-5.416493 2.317941,4.459575 c 0.443214,-0.63913 0.907897,-1.309275 1.279125,-1.844322 0.201328,-0.290172 0.340744,-0.490899 0.522345,-0.752555 z" />
        <path
           id="path107375"
           style="font-style:normal;font-variant:normal;font-weight:bold;font-stretch:normal;font-size:192px;line-height:1.25;font-family:'Times New Roman';-inkscape-font-specification:'Times New Roman,  Bold';white-space:pre;shape-inside:url(#rect1706);fill:#2c2c54;fill-opacity:1;stroke:none;stroke-width:0.0993959"
           d="m 37.310881,23.436633 h -2.084575 v 0.292147 c 0.403234,0.02106 0.674529,0.07896 0.813828,0.17371 0.139299,0.09475 0.20893,0.24476 0.20893,0.45005 0,0.13686 -0.09532,0.394794 -0.285938,0.773791 l -0.43281,0.870136 c 0.37602,-0.541355 0.707966,-1.019066 0.97684,-1.405653 0.201196,-0.289278 0.374907,-0.538865 0.524883,-0.754206 0.06737,-0.09673 0.129945,-0.186546 0.188074,-0.269949 0.03911,-0.05612 0.05558,-0.07957 0.09077,-0.130026 z"
           sodipodi:nodetypes="cccssccsssc" />
        <path
           id="path110037"
           style="fill:#000000;stroke:none;stroke-width:0.00141411"
           d="m 43.296045,18.372267 c -1.407297,2.004913 -2.735691,3.89686 -3.854096,5.488297 -1.304241,1.855874 -2.423309,3.446823 -3.383506,4.810647 -0.960198,1.363828 -1.761546,2.500566 -2.430276,3.447986 -0.472664,0.669649 -0.805934,1.140412 -1.1554,1.634279 -0.748413,-0.553208 -1.463214,-1.086507 -1.475666,-1.107686 -0.01114,-0.01736 0,0 -0.01225,-0.08038 0.0083,-0.04318 0.38979,-0.600392 3.756999,-5.477494 l 3.749142,-5.430303 v 0 l -1.514481,-1.127561 -0.0084,-0.05006 c -0.0097,-0.06015 0.03191,-0.129947 0.09128,-0.153727 0.02268,-0.0088 1.290614,-0.412198 2.819635,-0.896888 1.52902,-0.484692 2.909579,-0.921847 3.067433,-0.973422 0.158112,-0.04956 0.309529,-0.08942 0.33565,-0.08658 0.0051,3.3e-4 0.0092,0.0021 0.01396,0.0029 z"
           sodipodi:nodetypes="cssccccscccccsccsc" />
        <path
           id="path110037-9"
           style="fill:#000000;stroke:none;stroke-width:0.00141411"
           d="m 31.207554,37.217065 c 1.419058,-1.996604 2.758551,-3.88071 3.886292,-5.465545 1.315128,-1.848175 2.443529,-3.432519 3.411725,-4.790676 0.9682,-1.358158 1.776215,-2.490166 2.450504,-3.433638 0.476591,-0.666859 0.812623,-1.135656 1.164986,-1.62746 0.745148,0.557598 1.456801,1.09509 1.469128,1.116343 0.01104,0.01743 0,0 0.01178,0.08045 -0.0086,0.04313 -0.393313,0.59809 -3.789132,5.455313 l -3.780999,5.40817 0.754332,0.567647 0.753495,0.568797 0.0081,0.0501 c 0.0093,0.06021 -0.03267,0.129758 -0.09218,0.153188 -0.02273,0.0086 -1.293014,0.404604 -2.824857,0.880299 -1.531844,0.475694 -2.914948,0.904727 -3.073103,0.955373 -0.158401,0.04863 -0.310049,0.0876 -0.336153,0.08461 -0.0051,-3e-4 -0.0092,-0.0021 -0.01394,-0.003 z"
           sodipodi:nodetypes="cssccccscccccsccsc" />
        <path
           id="path126985"
           style="font-size:32px;line-height:1.25;font-family:sans-serif;white-space:pre;shape-inside:url(#rect112206);fill:#464686;fill-opacity:1;stroke-width:0.666292"
           d="m 42.001478,25.395568 c -0.22615,0.322197 -0.456671,0.650663 -0.865684,1.23424 -0.298012,0.425201 -0.802846,1.146154 -1.222613,1.745476 v 6.350258 c 0,0.679961 -0.103712,1.109116 -0.311144,1.287466 -0.328432,0.2731 -0.855651,0.409639 -1.58166,0.409639 h -0.622288 v 0.309336 h 7.545276 v -0.309336 h -0.635258 c -0.414863,0 -0.812453,-0.0669 -1.192744,-0.200659 -0.276575,-0.100322 -0.458033,-0.220125 -0.544463,-0.359461 -0.112358,-0.183924 -0.168568,-0.56292 -0.168568,-1.136985 v -3.561436 h 3.202233 c 0.587722,0 1.028487,0.05296 1.322348,0.158853 0.302504,0.100322 0.535897,0.253599 0.700113,0.459817 0.172858,0.206217 0.263589,0.529457 0.27223,0.96976 h 0.479714 v -3.837337 h -0.479714 c -0.112358,0.618653 -0.341371,1.033869 -0.687089,1.24566 -0.337075,0.206218 -0.87295,0.309335 -1.607602,0.309335 h -3.202233 v -4.455956 h 3.876404 c 0.916154,0 1.59026,0.0557 2.022409,0.167173 0.440791,0.111469 0.808138,0.292624 1.102,0.54343 0.302504,0.245232 0.56614,0.63257 0.790856,1.162048 h 0.453718 l -0.168516,-2.491321 z" />
      </g>
    </g>
    <text
       xml:space="preserve"
       transform="matrix(0.72628403,0,0,1.3405761,-1631.826,-578.14473)"
       id="text5848"
       style="font-style:normal;font-weight:normal;font-size:40px;line-height:1.25;font-family:sans-serif;white-space:pre;shape-inside:url(#rect5850);fill:#000000;fill-opacity:1;stroke:none"><tspan
         x="2355.1738"
         y="468.55767"
         id="tspan30308"><tspan
           style="font-weight:bold;font-family:serif;-inkscape-font-specification:'serif Bold';fill:#2c2c54"
           id="tspan30302">Work</tspan><tspan
           style="fill:#464686"
           id="tspan30304">F</tspan><tspan
           style="font-weight:bold;font-family:serif;-inkscape-font-specification:'serif Bold';fill:#464686"
           id="tspan30306">lix</tspan></tspan></text>
  </g>
</svg>
