<svg width="37" height="36" viewBox="0 0 37 36" fill="none" xmlns="http://www.w3.org/2000/svg">
<path d="M1.19943 7.87782C0.913253 10.6031 1.86716 17.865 10.2529 26.0241C18.6386 34.1831 26.1022 35.1113 28.9032 34.8328C31.7042 34.5544 33.5513 32.8725 34.7683 31.5703C34.8347 31.4972 34.933 31.3847 35.0342 31.2441C35.7366 30.2738 36.0893 29.4272 32.6032 26.0353C28.8829 22.4156 27.0879 23.5519 26.2958 24.0609C26.2958 24.0609 25.1483 24.9638 24.5933 25.3013C24.2319 25.5206 23.8648 25.6641 23.3503 25.6641C22.3761 25.6669 20.6389 26.2013 15.8318 21.6703C15.641 21.4847 15.4618 21.3047 15.2854 21.1275C15.1033 20.9588 14.9183 20.7844 14.7276 20.5959C10.0679 15.9188 10.6171 14.2313 10.62 13.2806C10.62 12.78 10.7674 12.4228 10.9929 12.0713C11.3397 11.5341 12.2676 10.4147 12.2676 10.4147C12.7908 9.64407 13.9586 7.89751 10.2384 4.27782C6.75521 0.888759 5.88224 1.23188 4.88497 1.91532C4.74044 2.01376 4.62482 2.10657 4.54966 2.17407C3.21419 3.35532 1.48271 5.15532 1.19943 7.87782Z" fill="#424242"/>
<path d="M31.7854 26.6203C35.4189 30.1668 34.4072 31.9584 34.4072 31.9584C35.1588 31.6687 37.8037 29.7253 33.1989 25.2478C28.5941 20.7703 26.5909 23.3353 26.2932 24.0665C26.2932 24.0637 28.1403 23.0821 31.7854 26.6203Z" fill="#616161"/>
<path d="M5.39398 14.071C6.12242 15.7753 7.92328 19.4147 12.4847 23.8528C17.0461 28.291 20.7866 30.0432 22.5383 30.7519C23.1135 30.9853 23.7061 30.4819 23.5558 29.8913C23.2783 28.7888 23.2205 27.1407 24.4866 25.47C24.5299 25.4138 24.5588 25.3575 24.5906 25.2985C24.5906 25.2985 23.946 25.6725 23.3505 25.6641C22.4111 25.65 20.3009 25.9903 15.2944 21.1191C10.2878 16.2478 10.6347 14.1947 10.6202 13.2807C10.6116 12.7013 10.996 12.0741 10.996 12.0741C10.9382 12.1022 10.8775 12.1332 10.8197 12.1753C9.10265 13.4044 7.40875 13.351 6.27562 13.081C5.67148 12.9375 5.15406 13.5113 5.39398 14.071Z" fill="#616161"/>
<path d="M9.64021 5.07372C5.99514 1.53559 4.15381 2.52278 4.15381 2.52278C4.45154 1.79153 6.44896 -0.781908 11.0508 3.6984C15.6527 8.17872 13.0165 10.1278 12.2649 10.4175C12.2678 10.4175 13.2766 8.62028 9.64021 5.07372Z" fill="#616161"/>
<path d="M5.95188 1.61432C5.81313 1.82525 5.81024 2.04182 5.98946 2.219C6.15711 2.38494 6.89422 2.57619 7.56774 2.86025C8.2586 3.15275 8.64594 3.54369 9.00149 3.54369C9.22407 3.54369 9.46399 3.47338 9.5854 3.29057C9.70102 3.11619 9.68368 2.88275 9.59118 2.69713C9.49868 2.5115 9.34258 2.36244 9.17782 2.23025C8.51008 1.68744 6.63985 0.568067 5.95188 1.61432Z" fill="#757575"/>
<path d="M2.80672 9.8072C2.48297 8.77782 2.59859 7.37438 2.95992 6.26626C3.49179 4.63501 4.32719 4.27501 4.73187 4.2947C5.23484 4.32001 5.67711 4.66032 5.58461 5.32688C5.51523 5.81626 5.08453 6.25782 4.65672 6.74438C3.91383 7.59095 3.69414 8.71313 3.3964 9.75657C3.27211 10.2009 2.91656 10.1531 2.80672 9.8072Z" fill="#616161"/>
<path d="M33.2885 27.4275C34.1817 28.5834 34.5083 28.9546 34.7829 29.0868C35.2021 29.2865 35.4478 29.0221 35.4824 28.769C35.5085 28.5778 35.4564 28.3865 35.3871 28.2065C35.1096 27.464 34.5892 26.6371 33.936 26.1478C33.6209 25.9115 33.2538 25.9115 33.037 26.2828C32.8144 26.6709 33.0456 27.1125 33.2885 27.4275Z" fill="#757575"/>
<path d="M30.3487 31.9416C30.9413 31.5141 31.4414 30.9741 32.0311 30.5409C32.2334 30.3919 32.4964 30.2512 32.7277 30.3497C32.9445 30.4397 33.1353 30.8137 33.0804 31.2244C32.8982 32.6194 31.0569 33.4041 30.1146 33.5869C28.8861 33.8259 27.3136 33.6769 27.3743 33.2972C27.4205 32.9991 28.042 33.0131 28.8687 32.7066C29.3919 32.5125 29.8978 32.2678 30.3487 31.9416Z" fill="#616161"/>
</svg>
